<svg width="24" height="24" viewBox="0 0 24 24" fill="none" xmlns="http://www.w3.org/2000/svg">
  <circle cx="12" cy="12" r="4" fill="#FFC0CB" />
  <path d="M12 4C10 4 9 6 9 8C9 10 10 12 12 12C14 12 15 10 15 8C15 6 14 4 12 4Z" fill="#FFC0CB" />
  <path d="M12 4C10 4 9 6 9 8C9 10 10 12 12 12C14 12 15 10 15 8C15 6 14 4 12 4Z" fill="#FFC0CB" transform="rotate(72 12 12)" />
  <path d="M12 4C10 4 9 6 9 8C9 10 10 12 12 12C14 12 15 10 15 8C15 6 14 4 12 4Z" fill="#FFC0CB" transform="rotate(144 12 12)" />
  <path d="M12 4C10 4 9 6 9 8C9 10 10 12 12 12C14 12 15 10 15 8C15 6 14 4 12 4Z" fill="#FFC0CB" transform="rotate(216 12 12)" />
  <path d="M12 4C10 4 9 6 9 8C9 10 10 12 12 12C14 12 15 10 15 8C15 6 14 4 12 4Z" fill="#FFC0CB" transform="rotate(288 12 12)" />
</svg>
