<svg width="32" height="32" viewBox="0 0 32 32" fill="none" xmlns="http://www.w3.org/2000/svg">
  <path d="M16 4C13 4 11 7 11 10C11 13 13 16 16 16C19 16 21 13 21 10C21 7 19 4 16 4Z" fill="#2D6A4F"/>
  <path d="M16 4C13 4 11 7 11 10C11 13 13 16 16 16C19 16 21 13 21 10C21 7 19 4 16 4Z" fill="#2D6A4F" transform="rotate(72 16 16)"/>
  <path d="M16 4C13 4 11 7 11 10C11 13 13 16 16 16C19 16 21 13 21 10C21 7 19 4 16 4Z" fill="#2D6A4F" transform="rotate(144 16 16)"/>
  <path d="M16 4C13 4 11 7 11 10C11 13 13 16 16 16C19 16 21 13 21 10C21 7 19 4 16 4Z" fill="#2D6A4F" transform="rotate(216 16 16)"/>
  <path d="M16 4C13 4 11 7 11 10C11 13 13 16 16 16C19 16 21 13 21 10C21 7 19 4 16 4Z" fill="#2D6A4F" transform="rotate(288 16 16)"/>
  <rect x="15" y="16" width="2" height="12" fill="#40916C"/>
  <circle cx="16" cy="28" r="2" fill="#40916C"/>
</svg>
